<?xml version="1.0" standalone="no"?>
<!DOCTYPE svg PUBLIC "-//W3C//DTD SVG 20010904//EN"
 "http://www.w3.org/TR/2001/REC-SVG-20010904/DTD/svg10.dtd">
<svg version="1.0" xmlns="http://www.w3.org/2000/svg"
 width="258.000000pt" height="154.000000pt" viewBox="0 0 258.000000 154.000000"
 preserveAspectRatio="xMidYMid meet">

<g transform="translate(0.000000,154.000000) scale(0.100000,-0.100000)"
fill="#000000" stroke="none">
<path d="M1210 1329 c-156 -16 -307 -71 -443 -162 -71 -47 -202 -172 -255
-244 -22 -29 -42 -49 -46 -45 -4 4 -7 2 -6 -3 5 -23 -1 -36 -12 -29 -7 4 -10
4 -6 0 3 -4 -2 -26 -13 -49 -10 -23 -19 -54 -19 -69 l0 -28 -152 0 c-132 0
-157 -3 -193 -20 -23 -11 -47 -32 -53 -46 -8 -17 -12 -110 -12 -285 0 -213 3
-265 15 -289 33 -64 -44 -60 1272 -60 1169 0 1199 1 1230 20 57 34 58 41 58
330 0 239 -2 268 -18 292 -34 49 -70 58 -241 58 l-156 0 0 29 c0 33 -38 108
-86 170 -18 24 -31 48 -27 54 3 5 1 7 -4 4 -6 -4 -16 0 -23 8 -7 8 -10 15 -7
15 10 0 -118 116 -178 162 -182 138 -417 208 -625 187z m-143 -114 c26 -9 55
-20 64 -25 19 -10 57 -8 158 11 78 13 108 6 144 -36 17 -20 17 -19 7 10 -6 16
-8 26 -4 22 4 -4 13 -2 20 4 15 13 121 2 130 -13 4 -6 0 -14 -7 -19 -10 -7 -6
-8 11 -5 73 14 91 15 85 7 -3 -6 12 -8 34 -6 33 3 49 -2 90 -29 91 -61 162
-130 232 -223 81 -108 101 -150 97 -206 -2 -34 -9 -45 -37 -64 -33 -23 -38
-23 -333 -23 -294 0 -300 0 -317 21 -15 18 -21 20 -39 10 -12 -6 -33 -9 -46
-5 -14 3 -39 -1 -58 -10 -31 -15 -82 -16 -421 -14 l-387 3 -26 26 c-21 21 -26
36 -26 69 1 91 164 300 311 400 61 40 95 53 149 52 12 0 22 6 22 13 0 12 61
43 87 44 7 1 34 -6 60 -14z m653 -35 c0 -5 -4 -10 -10 -10 -5 0 -10 5 -10 10
0 6 5 10 10 10 6 0 10 -4 10 -10z m518 -754 c2 -86 -1 -133 -9 -142 -9 -11
-43 -14 -140 -14 -116 0 -131 -2 -149 -20 -31 -31 -129 -31 -172 1 -24 17 -45
19 -188 19 -125 0 -160 -3 -160 -13 0 -21 -53 -67 -91 -77 -43 -13 -129 -13
-129 -1 0 5 19 12 43 16 83 14 121 50 98 94 -6 10 -25 24 -42 30 -31 11 -32
12 -14 31 9 10 15 26 12 35 -4 8 -2 15 3 15 23 0 78 -34 94 -58 l18 -27 171 3
c145 2 174 5 184 19 8 10 33 18 69 21 45 4 64 0 94 -17 34 -19 52 -21 137 -19
l98 3 -1 80 c0 44 -4 89 -8 100 -6 17 -1 24 26 37 18 9 38 15 43 14 6 -2 11
-56 13 -130z m110 114 c26 -16 32 -25 26 -38 -5 -9 -11 -64 -14 -122 l-5 -104
-30 -6 c-30 -6 -30 -6 -28 34 1 23 2 89 2 149 1 59 4 107 9 107 4 0 22 -9 40
-20z m-2083 1 c11 -5 25 -4 31 0 16 13 67 -8 61 -24 -2 -8 -29 -12 -83 -12
-65 0 -79 3 -82 17 -4 23 36 33 73 19z m1087 -24 c-7 -28 -40 -41 -68 -26 -13
7 -24 16 -24 20 0 15 35 28 66 26 24 -2 30 -6 26 -20z m-940 -114 l3 -78 177
-3 178 -2 -25 24 c-18 18 -25 35 -23 55 1 16 6 27 11 24 4 -2 15 1 24 8 13 12
46 18 153 31 19 2 26 -2 28 -17 4 -36 -14 -49 -75 -55 -108 -9 -60 -70 55 -70
64 0 82 -11 62 -36 -11 -12 -70 -14 -404 -12 l-391 3 -3 29 c-6 48 6 73 42 90
19 9 53 16 76 16 25 0 39 4 35 10 -10 17 -14 51 -5 45 4 -3 19 -1 32 4 44 18
47 15 50 -66z m715 -5 c-1 -4 13 -19 31 -35 46 -39 57 -92 28 -135 -11 -17
-37 -37 -56 -44 -42 -15 -150 -18 -150 -4 0 9 11 13 79 24 42 7 71 32 71 59 0
24 -27 57 -46 57 -7 0 -18 9 -24 20 -9 16 -8 18 5 14 15 -6 19 4 16 36 -1 10
7 15 23 15 13 0 24 -3 23 -7z m371 -236 c3 -9 -3 -11 -22 -6 -16 4 -26 2 -26
-5 0 -6 6 -8 14 -5 18 7 27 -8 15 -26 -6 -10 -9 -11 -9 -2 0 6 -4 12 -10 12
-5 0 -10 -6 -10 -14 0 -15 16 -16 38 -2 16 10 27 2 17 -13 -3 -6 -26 -11 -49
-11 l-43 0 0 46 0 45 40 -3 c22 -2 42 -9 45 -16z m74 6 c-16 -16 -16 -72 1
-65 48 20 50 20 45 6 -3 -9 -22 -15 -51 -17 l-47 -3 6 30 c4 19 2 37 -6 46
-11 13 -7 15 26 15 30 0 35 -3 26 -12z m144 -9 l22 -21 11 21 c7 12 22 21 36
21 22 0 23 -3 15 -31 -5 -16 -6 -37 -3 -45 4 -10 -2 -14 -20 -14 -21 0 -24 4
-20 28 l4 27 -16 -27 c-20 -35 -30 -35 -44 0 l-11 27 4 -27 c2 -21 -1 -28 -13
-28 -12 0 -16 10 -16 45 0 51 15 58 51 24z m187 -22 l23 -37 34 35 c35 36 31
47 -8 19 -23 -16 -30 -6 -10 14 14 14 88 16 88 2 0 -5 -12 -20 -27 -34 -33
-31 -24 -45 13 -22 25 17 26 17 22 -1 -3 -15 -15 -18 -76 -21 -55 -2 -76 1
-88 13 -16 16 -39 11 -29 -6 4 -5 -3 -9 -14 -9 l-20 0 20 35 c11 19 18 38 15
43 -3 5 3 9 14 8 12 -1 30 -17 43 -39z m232 33 c4 -6 12 -7 18 -3 7 3 4 -3 -7
-15 -15 -17 -16 -25 -7 -36 17 -21 35 -11 54 29 9 19 20 35 25 35 5 0 19 -19
32 -42 21 -37 25 -40 34 -24 6 10 21 29 32 43 l21 25 31 -46 31 -46 -28 0
c-16 0 -31 7 -35 15 -3 8 -10 15 -16 15 -5 0 -10 -7 -10 -15 0 -11 -12 -15
-45 -15 -31 0 -44 4 -42 12 1 7 -5 13 -13 13 -8 0 -14 -6 -12 -13 3 -19 -73
-15 -94 5 -17 17 -18 17 -11 1 5 -14 1 -18 -17 -18 -21 0 -24 5 -28 45 l-3 45
42 0 c23 0 45 -5 48 -10z"/>
<path d="M1859 983 c-7 -18 -22 -34 -34 -36 -11 -2 19 -5 67 -6 l87 -1 -23 25
c-13 14 -34 25 -49 25 -14 0 -28 6 -30 13 -3 6 -11 -2 -18 -20z"/>
<path d="M671 840 c97 -32 257 -107 367 -171 40 -23 75 -40 77 -37 9 8 -155
109 -249 153 -93 44 -221 85 -261 85 -11 0 19 -14 66 -30z"/>
<path d="M1430 819 c-63 -18 -64 -18 -50 -34 14 -17 95 -21 85 -5 -9 15 53 12
134 -6 77 -17 95 -14 68 13 -9 10 -17 12 -17 7 0 -15 -53 -5 -63 12 -5 8 -22
11 -51 8 -26 -3 -47 -1 -51 5 -7 13 -8 13 -55 0z"/>
<path d="M1975 780 c4 -6 11 -8 16 -5 14 9 11 15 -7 15 -8 0 -12 -5 -9 -10z"/>
<path d="M590 750 c0 -5 16 -10 35 -10 19 0 35 5 35 10 0 6 -16 10 -35 10 -19
0 -35 -4 -35 -10z"/>
<path d="M1554 751 c3 -5 15 -7 26 -4 28 7 25 13 -6 13 -14 0 -23 -4 -20 -9z"/>
<path d="M1480 740 c0 -5 5 -10 10 -10 6 0 10 5 10 10 0 6 -4 10 -10 10 -5 0
-10 -4 -10 -10z"/>
<path d="M1628 738 c9 -9 15 -9 24 0 9 9 7 12 -12 12 -19 0 -21 -3 -12 -12z"/>
<path d="M1420 730 c0 -5 4 -10 9 -10 6 0 13 5 16 10 3 6 -1 10 -9 10 -9 0
-16 -4 -16 -10z"/>
<path d="M1875 720 c3 -5 19 -10 35 -10 16 0 32 5 35 10 4 6 -10 10 -35 10
-25 0 -39 -4 -35 -10z"/>
<path d="M835 670 c3 -5 12 -10 20 -10 8 0 17 5 20 10 4 6 -5 10 -20 10 -15 0
-24 -4 -20 -10z"/>
<path d="M1820 305 c-12 -14 -11 -18 1 -26 25 -16 64 -6 64 16 0 26 -46 33
-65 10z"/>
<path d="M268 359 c-33 -19 -21 -39 21 -39 43 0 55 9 45 34 -7 18 -40 21 -66
5z"/>
<path d="M2090 150 c0 -5 5 -10 10 -10 6 0 10 5 10 10 0 6 -4 10 -10 10 -5 0
-10 -4 -10 -10z"/>
</g>
</svg>
